Coordinates
version=1
nRows=14
nColumns=24
inDegrees=yes

Units are S.I. units (second, meters, Newtons, ...)
Angles are in degrees.

endheader
time	pelvis_tilt	pelvis_list	pelvis_rotation	pelvis_tx	pelvis_ty	pelvis_tz	hip_flexion_r	hip_adduction_r	hip_rotation_r	knee_angle_r	ankle_angle_r	subtalar_angle_r	mtp_angle_r	hip_flexion_l	hip_adduction_l	hip_rotation_l	knee_angle_l	ankle_angle_l	subtalar_angle_l	mtp_angle_l	lumbar_extension	lumbar_bending	lumbar_rotation
      1.42483333	      1.40821722	      9.40440305	     -4.73074236	      0.30521744	      1.00828658	      0.31310950	     17.42342888	    -12.02453561	      1.49778535	    -75.09192950	    -11.06874676	    -11.38049740	      6.63946866	      5.61309663	     14.61745225	      3.30222770	     -8.81043430	      1.26254104	    -18.15197575	     -2.44490712	    -13.68172422	     -4.98581917	     -1.96165226
      1.42900000	      1.39554871	      9.18029964	     -4.64993316	      0.31001836	      1.00918671	      0.31272293	     17.97281105	    -11.71680449	      1.37784110	    -74.83335469	    -10.50874819	    -11.57914029	      6.59813331	      5.06632325	     14.41326191	      3.42262138	     -8.37918072	      1.34497462	    -17.95344279	     -2.44207117	    -13.67791357	     -4.64033697	     -2.28778629
      1.43316667	      1.37850828	      8.98440777	     -4.56353491	      0.31481645	      1.01000600	      0.31231254	     18.51893437	    -11.44563727	      1.25101327	    -74.53223253	     -9.89353799	    -11.81998365	      6.56919420	      4.52385278	     14.24154720	      3.57287946	     -7.93962326	      1.37653578	    -17.84291683	     -2.44102774	    -13.69353688	     -4.34510411	     -2.44367920
      1.43733333	      1.40537383	      8.76881348	     -4.46980368	      0.31965520	      1.01089356	      0.31190428	     18.98087089	    -11.16053655	      1.10059959	    -74.14322051	     -9.31774201	    -12.02101385	      6.50071617	      3.90416036	     14.05137446	      3.78009901	     -7.44938450	      1.41688824	    -17.78645078	     -2.44098045	    -13.72655708	     -4.02671091	     -2.75839232
      1.44150000	      1.38664691	      8.57756863	     -4.37122410	      0.32446769	      1.01164380	      0.31149911	     19.49073408	    -10.89785189	      0.95394173	    -73.72162391	     -8.67037089	    -12.24153335	      6.47059880	      3.36444050	     13.87736260	      3.91161587	     -7.00892724	      1.43065552	    -17.67794588	     -2.44082768	    -13.71849706	     -3.76658827	     -2.87218661
      1.44566667	      1.41683533	      8.35995338	     -4.27420126	      0.32927279	      1.01244857	      0.31108083	     19.91896034	    -10.60940340	      0.80407294	    -73.21924799	     -8.06843974	    -12.39966400	      6.39642706	      2.75014544	     13.68051045	      4.12511128	     -6.53039758	      1.47122199	    -17.60300220	     -2.44127055	    -13.79761619	     -3.41373415	     -3.16090479
      1.44983333	      1.42601145	      8.15447320	     -4.17030023	      0.33411965	      1.01316997	      0.31067459	     20.35178019	    -10.33834568	      0.63937068	    -72.66500625	     -7.43308200	    -12.55801590	      6.30561358	      2.16546818	     13.48925387	      4.28985998	     -6.06552007	      1.50485198	    -17.52148219	     -2.44223520	    -13.80297121	     -3.11814478	     -3.40265801
      1.45400000	      1.38624745	      7.97320985	     -4.06303109	      0.33893689	      1.01375594	      0.31028029	     20.83607218	    -10.08496047	      0.48751855	    -72.07680152	     -6.76625929	    -12.74513776	      6.26520511	      1.66149239	     13.31561893	      4.40111715	     -5.64512360	      1.52184961	    -17.39243404	     -2.44234079	    -13.77538133	     -2.86031591	     -3.50077263
      1.45816667	      1.43774572	      7.76117657	     -3.96384580	      0.34377977	      1.01445967	      0.30988902	     21.18587501	     -9.81091295	      0.32416880	    -71.40089808	     -6.13934508	    -12.82838323	      6.16182732	      1.03125152	     13.11355238	      4.57109708	     -5.17710622	      1.59102752	    -17.27848658	     -2.44253379	    -13.84481117	     -2.54147022	     -3.78642960
      1.46233333	      1.43533295	      7.57829773	     -3.85513154	      0.34861018	      1.01499899	      0.30949636	     21.59207329	     -9.56499117	      0.16527869	    -70.69835679	     -5.47924559	    -12.94335333	      6.00889280	      0.48023810	     12.93620272	      4.71106034	     -4.74200185	      1.63008708	    -17.15346349	     -2.44411483	    -13.85364011	     -2.26090737	     -4.02765797
      1.46650000	      1.42579239	      7.39183777	     -3.74905799	      0.35343937	      1.01549391	      0.30913928	     21.98699761	     -9.30931915	      0.01167949	    -69.93407551	     -4.81672296	    -13.03602722	      5.92332255	     -0.04559399	     12.74910096	      4.81215868	     -4.34059345	      1.67846422	    -17.01857418	     -2.44435122	    -13.84911949	     -2.01204423	     -4.14411392
      1.47066667	      1.39836509	      7.22771489	     -3.64961004	      0.35826295	      1.01589204	      0.30876786	     22.39929984	     -9.07846121	     -0.12714286	    -69.13777617	     -4.15855118	    -13.14508848	      5.87102467	     -0.55003997	     12.58481485	      4.91241592	     -3.93258534	      1.72340174	    -16.86552706	     -2.44332083	    -13.84613737	     -1.75109065	     -4.24160131
      1.47483333	      1.43753253	      7.04089331	     -3.55521100	      0.36312275	      1.01635452	      0.30842612	     22.70470660	     -8.83020360	     -0.27464275	    -68.26184893	     -3.53392126	    -13.14163413	      5.74816925	     -1.13890394	     12.39601054	      5.03115183	     -3.50695822	      1.81882494	    -16.71687701	     -2.44176005	    -13.88559101	     -1.48065401	     -4.49332835
      1.47900000	      1.45260762	      6.89562853	     -3.44866550	      0.36794901	      1.01669346	      0.30808507	     23.03614516	     -8.62825824	     -0.41749897	    -67.36587832	     -2.86566397	    -13.18894277	      5.50056476	     -1.67805449	     12.24750423	      5.13601502	     -3.11676096	      1.86186464	    -16.56215541	     -2.44166483	    -13.91760472	     -1.26270969	     -4.73508356
